Coordinates
version=1
nRows=17
nColumns=24
inDegrees=yes

Units are S.I. units (second, meters, Newtons, ...)
Angles are in degrees.

endheader
time	pelvis_tilt	pelvis_list	pelvis_rotation	pelvis_tx	pelvis_ty	pelvis_tz	hip_flexion_r	hip_adduction_r	hip_rotation_r	knee_angle_r	ankle_angle_r	subtalar_angle_r	mtp_angle_r	hip_flexion_l	hip_adduction_l	hip_rotation_l	knee_angle_l	ankle_angle_l	subtalar_angle_l	mtp_angle_l	lumbar_extension	lumbar_bending	lumbar_rotation
      3.89000000	      2.44587375	      7.94097603	     11.30911181	     -3.40475434	      0.72103580	      0.46498070	     18.57999766	     -9.37950198	      0.32177478	     -0.06156867	      9.42138570	    -12.23676984	      0.00000000	    -25.34735792	      5.23533108	     10.07950712	     -8.93023295	      8.89831495	    -14.64598036	      0.00000000	    -29.05210293	     -4.87251376	    -18.07372773
      3.90000000	      2.82231393	      7.36844374	     11.39927597	     -3.39002249	      0.71990512	      0.46639067	     18.08182311	     -8.50834183	      2.05585159	     -1.20476318	      6.66666514	    -15.98955100	      0.00000000	    -25.56222201	      4.24941998	      9.48283086	    -10.94210311	      8.50507923	    -13.86830545	      0.00000000	    -29.08205077	     -4.20279154	    -17.73383648
      3.91000000	      3.25722538	      6.56031352	     11.34751451	     -3.37534739	      0.71907818	      0.46800601	     17.83079295	     -7.27677249	      3.17886091	     -2.97181242	      4.12362655	    -18.92233724	      0.00000000	    -25.63691074	      3.11559389	      8.75078318	    -13.15995432	      7.59458949	    -13.54973851	      0.00000000	    -29.16995511	     -3.32661116	    -17.17668148
      3.92000000	      3.57692497	      5.57487417	     11.06308812	     -3.36082894	      0.71834122	      0.46987637	     18.08609840	     -5.75771117	      3.95018720	     -5.42246021	      2.00846256	    -21.10491729	      0.00000000	    -25.32798963	      1.97199898	      7.65884628	    -15.70595762	      6.30954844	    -13.43636059	      0.00000000	    -29.14448234	     -2.38137654	    -16.34801358
      3.93000000	      3.99347808	      4.47466802	     10.57106260	     -3.34648248	      0.71795144	      0.47188602	     18.58595340	     -4.04640933	      3.80904781	     -8.48298048	      1.21046541	    -21.46790263	      0.00000000	    -24.94656319	      0.82453513	      6.41842806	    -18.44061915	      4.25503569	    -13.86672529	      0.00000000	    -29.28886754	     -1.35642868	    -15.33590739
      3.94000000	      4.36410636	      3.32474047	      9.91492706	     -3.33233568	      0.71767602	      0.47399601	     19.15717679	     -2.24201177	      3.84616546	    -11.63399232	      0.82202346	    -21.90146314	      0.00000000	    -24.22228249	     -0.28235813	      4.89086901	    -21.59198599	      1.80829011	    -14.39709315	      0.00000000	    -29.44578566	     -0.33931056	    -14.18005514
      3.95000000	      4.66457187	      2.22560449	      9.19078599	     -3.31839212	      0.71753700	      0.47608045	     19.69804401	     -0.49786837	      3.84838413	    -14.67063344	      0.97980695	    -22.15722114	      0.00000000	    -23.19969645	     -1.29829792	      3.36224067	    -25.01864661	     -1.42100621	    -15.28534968	      0.00000000	    -29.59756638	      0.59711298	    -13.10315057
      3.96000000	      4.99864966	      1.24722566	      8.46479249	     -3.30468157	      0.71770625	      0.47805563	     19.94602609	      1.08900623	      3.72708340	    -17.32168992	      1.77878788	    -21.94378820	      0.00000000	    -22.02451035	     -2.18768903	      2.03361147	    -28.61608726	     -5.53841469	    -16.81581646	      0.00000000	    -29.86750848	      1.41686513	    -12.15706961
      3.97000000	      5.29005764	      0.34262813	      7.93341522	     -3.29120059	      0.71812066	      0.47980679	     19.86588075	      2.51959913	      3.54972346	    -19.38129204	      2.89532224	    -21.82933775	      0.00000000	    -20.51177451	     -3.10190077	      0.95965392	    -32.48045549	    -10.10283456	    -18.35394649	      0.00000000	    -30.11647626	      2.21808894	    -11.46518692
      3.98000000	      5.59181364	     -0.38636648	      7.55957934	     -3.27797595	      0.71888075	      0.48133844	     19.42007924	      3.69959459	      3.31785172	    -20.87584019	      4.25966119	    -21.59649585	      0.00000000	    -18.79295558	     -3.91439823	      0.17321385	    -36.43602598	    -15.03841087	    -19.93883069	      0.00000000	    -30.41035604	      2.89246741	    -11.01899496
      3.99000000	      5.86362716	     -0.98467896	      7.49222972	     -3.26501873	      0.71993963	      0.48253152	     18.66757047	      4.63397153	      2.92559820	    -21.81662256	      5.75198123	    -21.36667299	      0.00000000	    -16.78038144	     -4.68351378	     -0.14828762	    -40.47950144	    -19.81021783	    -21.22047502	      0.00000000	    -30.65891617	      3.52957969	    -10.89494987
      4.00000000	      6.09686817	     -1.42558794	      7.69637765	     -3.25232867	      0.72127950	      0.48339518	     17.67827566	      5.31787503	      2.42697001	    -22.30032873	      7.19162404	    -21.18927519	      0.00000000	    -14.52409109	     -5.32242646	     -0.03574355	    -44.46898357	    -23.97899094	    -22.03858708	      0.00000000	    -30.84032976	      4.09406748	    -11.09546884
      4.01000000	      6.33759610	     -1.72653012	      8.04873955	     -3.23984855	      0.72291785	      0.48401045	     16.49815170	      5.78641000	      1.72286862	    -22.47201183	      8.76748662	    -20.65220159	      0.00000000	    -12.17865232	     -5.78324096	      0.35173137	    -48.23230968	    -27.11691211	    -22.15289744	      0.00000000	    -31.00699795	      4.55560707	    -11.40314803
      4.02000000	      6.54247916	     -1.92148500	      8.48345749	     -3.22755310	      0.72479418	      0.48447039	     15.12805687	      6.18347295	      1.35063904	    -22.26314169	      9.73902239	    -20.81691607	      0.00000000	     -9.76773433	     -6.04341967	      0.93929091	    -51.65883307	    -28.87867276	    -21.58132475	      0.00000000	    -31.10517880	      4.91955131	    -11.81069428
      4.03000000	      6.62781092	     -1.93000729	      8.82686767	     -3.21538400	      0.72676444	      0.48485216	     13.85233726	      6.32718705	      0.79222422	    -22.01611055	     11.07009480	    -20.26851310	      0.00000000	     -7.32439286	     -5.95559638	      1.52118172	    -54.62565672	    -29.07947492	    -20.26213053	      0.00000000	    -31.06685496	      5.02067234	    -12.11138849
      4.04000000	      6.65822230	     -1.88780318	      9.03193846	     -3.20325849	      0.72884978	      0.48526689	     12.49590400	      6.46840145	      0.57758277	    -21.53129071	     11.92666237	    -20.09829146	      0.00000000	     -4.95849777	     -5.70507728	      1.95745136	    -57.08796759	    -27.88635297	    -18.52407998	      0.00000000	    -30.94366545	      4.99046332	    -12.27874747
      4.05000000	      6.68673407	     -1.74147651	      9.04787570	     -3.19116498	      0.73103203	      0.48575646	     11.09486152	      6.52628086	      0.55976143	    -20.98877508	     12.72990923	    -19.86971398	      0.00000000	     -2.77929010	     -5.26358289	      2.16814457	    -59.01318161	    -25.24052619	    -16.28634783	      0.00000000	    -30.83984679	      4.76263294	    -12.25301030
